<svg xmlns="http://www.w3.org/2000/svg" width="39" height="26.64" viewBox="0 0 39 26.64">
  <g id="グループ_124608" data-name="グループ 124608" transform="translate(-832 -2431)">
    <rect id="長方形_17334" data-name="長方形 17334" width="39" height="26.64" transform="translate(832 2431)" fill="none"/>
    <path id="パス_146" data-name="パス 146" d="M6.96,0h7.72a4.208,4.208,0,0,0,4.24-4.2V-22.44a4.208,4.208,0,0,0-4.24-4.2H6.96a4.166,4.166,0,0,0-4.16,4.2V-4.2A4.166,4.166,0,0,0,6.96,0Zm7.36-5.24A1.042,1.042,0,0,1,13.24-4.2H8.48A1.042,1.042,0,0,1,7.4-5.24V-21.4a1.042,1.042,0,0,1,1.08-1.04h4.76a1.042,1.042,0,0,1,1.08,1.04ZM36.04-16.68a1.017,1.017,0,0,1-.96,1.04H29.44v4.2h5.72a1.042,1.042,0,0,1,1.08,1.04v5.16A1.042,1.042,0,0,1,35.16-4.2H30.92a1.042,1.042,0,0,1-1.08-1.04V-7.36H25.32V-4.2A4.166,4.166,0,0,0,29.48,0H36.6a4.208,4.208,0,0,0,4.24-4.2v-6.6a2.908,2.908,0,0,0-1.88-2.88,3.073,3.073,0,0,0,1.68-2.64v-6.12a4.208,4.208,0,0,0-4.24-4.2H29.56a4.166,4.166,0,0,0-4.16,4.2v3.16h4.52V-21.4A1.042,1.042,0,0,1,31-22.44h3.96a1.042,1.042,0,0,1,1.08,1.04Z" transform="translate(829.2 2457.64)" fill="#307f3d"/>
  </g>
</svg>
