<svg xmlns="http://www.w3.org/2000/svg" width="39" height="26.64" viewBox="0 0 39 26.64">
  <g id="グループ_124610" data-name="グループ 124610" transform="translate(-120 -2431)">
    <rect id="長方形_17332" data-name="長方形 17332" width="39" height="26.64" transform="translate(120 2431)" fill="none"/>
    <path id="パス_148" data-name="パス 148" d="M6.96,0h7.72a4.208,4.208,0,0,0,4.24-4.2V-22.44a4.208,4.208,0,0,0-4.24-4.2H6.96a4.166,4.166,0,0,0-4.16,4.2V-4.2A4.166,4.166,0,0,0,6.96,0Zm7.36-5.24A1.042,1.042,0,0,1,13.24-4.2H8.48A1.042,1.042,0,0,1,7.4-5.24V-21.4a1.042,1.042,0,0,1,1.08-1.04h4.76a1.042,1.042,0,0,1,1.08,1.04Zm16.2-21.4-6.8,2.2v4.6l6.8-2.2V0h4.6V-26.64Z" transform="translate(117.2 2457.64)" fill="#307f3d"/>
  </g>
</svg>
