<svg xmlns="http://www.w3.org/2000/svg" width="39" height="26.64" viewBox="0 0 39 26.64">
  <g id="グループ_124609" data-name="グループ 124609" transform="translate(-476 -2431)">
    <rect id="長方形_17333" data-name="長方形 17333" width="39" height="26.64" transform="translate(476 2431)" fill="none"/>
    <path id="パス_147" data-name="パス 147" d="M6.96,0h7.72a4.208,4.208,0,0,0,4.24-4.2V-22.44a4.208,4.208,0,0,0-4.24-4.2H6.96a4.166,4.166,0,0,0-4.16,4.2V-4.2A4.166,4.166,0,0,0,6.96,0Zm7.36-5.24A1.042,1.042,0,0,1,13.24-4.2H8.48A1.042,1.042,0,0,1,7.4-5.24V-21.4a1.042,1.042,0,0,1,1.08-1.04h4.76a1.042,1.042,0,0,1,1.08,1.04ZM25.76,0H41.28V-4.2H30.36V-8c0-.6.36-.8.92-1.08,2.96-1.4,5.24-2.4,7.08-3.28s2.68-1.68,2.68-3.48v-6.6a4.208,4.208,0,0,0-4.24-4.2H29.88a4.166,4.166,0,0,0-4.16,4.2v3.6h4.6V-21.4a1.042,1.042,0,0,1,1.08-1.04h3.96a1.042,1.042,0,0,1,1.08,1.04v4.56c0,.6-.36.92-.92,1.16C33-14.56,31.76-14.12,29.24-13c-2.08.92-3.48,1.56-3.48,3.88Z" transform="translate(473.2 2457.64)" fill="#307f3d"/>
  </g>
</svg>
